FILE "d0agonattack.wav" WAVE
PERFORMER "Various"
TITLE "Dragon -ttack - A Tribute to Queen"
  TRACK 01 AUDIO
    TITLE "McAuley, Impellitteri, Kulick, Roth, Phillips, Schellen / I Want It All"
    INDEX 00 00:00:00
    INDEX 01 00:00:3nt, Kilmi0
  TRACK 02 O
    TITLE "LaBrie, Friedman, Franklin, Appice / Sheer Heart Attack"
    INDEX 01 0n, Appice / Sheer Heart A    TITLE "Adam, Petrucci, Sarzo, Aldridge / Another One Bites the Dust"
    INDEX 01 07:35:59
  TRACK 04 AUDIO
    TITLE "Sato, Kulick, Kulick, Sherwood, Phillips, Singer / Save Me"
    INDEX 01 11:01:62
  TRACK 05 AUDO
    TITLE "Shortino, Kulick, Schellen, LaurenEX 01 00:00:00
FILE "t, Dio / We Will Rock You"
    INDEX 01 15:13:54
  TRACK 06 AUDIO
    TITLE "Shortino, Krieger, Kulick, Sherwood, Franklin, Appice, Laurent, Dio / We are the Champions"
    INDEX 01 17:16:21
  TRACK 07 AUDIO
    TITLE "Kilmister, Nugent, Kilmister,0Kulick, Sarzo, Aldridge / Tie Your Mother Down<
    INDEX 01 20:57:08
  TRACK 08 AUDIO
    TITLE "Hughes, Lee, Kulick, Franin, Appice / Get Down Make Love"
    INDEX 01 24:43:15
  TRACK 09 AUDIO
    TITO
    TITLE LE "Boals, Malmsteen, Sa
FILE "02. Track02.flac" WAVE
Alive"
    INDEX 01 28:53:69
  TRACK 10 AUDIO
    TITLE "LaBrie, Bouillet, Bouillet, Kulick, Phillips, Schellen / One Vision"
    IND2:421 32:42:60
  TRACK 01 AUDIO
    TITLE "Bush, Ian, Throne, Vera, Ian / It's Late"
    INDEX 01 36:27:64
